<svg xmlns="http://www.w3.org/2000/svg" width="128" height="128" viewBox="0 0 128 128">
  <!-- Background circle -->
  <circle cx="64" cy="64" r="60" fill="#4CAF50" stroke="#45a049" stroke-width="2"/>
  
  <!-- Book icon -->
  <rect x="38" y="35" width="52" height="40" rx="2" fill="white" opacity="0.9"/>
  <rect x="42" y="39" width="44" height="32" rx="1" fill="#4CAF50"/>
  
  <!-- Pages -->
  <line x1="48" y1="45" x2="82" y2="45" stroke="white" stroke-width="2" opacity="0.8"/>
  <line x1="48" y1="51" x2="78" y2="51" stroke="white" stroke-width="2" opacity="0.8"/>
  <line x1="48" y1="57" x2="75" y2="57" stroke="white" stroke-width="2" opacity="0.8"/>
  <line x1="48" y1="63" x2="80" y2="63" stroke="white" stroke-width="2" opacity="0.8"/>
  
  <!-- Pencil/Pen -->
  <rect x="70" y="80" width="3" height="20" fill="#FFC107" transform="rotate(45 71.5 90)"/>
  <rect x="68" y="76" width="7" height="6" fill="#FF9800" transform="rotate(45 71.5 79)"/>
  
  <!-- Chart/Graph -->
  <rect x="35" y="85" width="25" height="15" fill="white" opacity="0.9" rx="2"/>
  <rect x="37" y="87" width="3" height="8" fill="#2196F3"/>
  <rect x="42" y="90" width="3" height="5" fill="#2196F3"/>
  <rect x="47" y="88" width="3" height="7" fill="#2196F3"/>
  <rect x="52" y="89" width="3" height="6" fill="#2196F3"/>
  
  <!-- Small dots for decoration -->
  <circle cx="95" cy="45" r="3" fill="white" opacity="0.7"/>
  <circle cx="100" cy="55" r="2" fill="white" opacity="0.5"/>
  <circle cx="92" cy="65" r="2.5" fill="white" opacity="0.6"/>
</svg>